<svg width="29" height="33" viewBox="0 0 29 33" fill="none" xmlns="http://www.w3.org/2000/svg">
<path d="M17.172 32.1385H11.3545C11.129 32.1385 11.0163 32.0257 11.0163 31.8003V19.3874H1.1739C0.90332 19.3874 0.76803 19.2746 0.76803 19.0491V13.5699C0.76803 13.5248 0.801853 13.4459 0.869498 13.3331C0.937143 13.2204 1.03861 13.164 1.1739 13.164H11.0163V0.548188C11.0163 0.457995 11.129 0.412898 11.3545 0.412898H17.172C17.3749 0.412898 17.4764 0.457995 17.4764 0.548188V13.164H27.7923C28.0178 13.164 28.1305 13.2993 28.1305 13.5699V19.0491C28.1305 19.2746 28.0178 19.3874 27.7923 19.3874H17.4764V31.8003C17.4764 32.0257 17.3749 32.1385 17.172 32.1385Z" fill="white"/>
</svg>
