<svg width="69" height="69" viewBox="0 0 69 69" fill="none" xmlns="http://www.w3.org/2000/svg">
<g clip-path="url(#clip0_1951_1034)">
<path d="M67.5409 33.4059H62.6647C60.9318 27.1711 57.1326 21.6341 51.9012 17.7487C51.4535 17.4162 50.8208 17.5094 50.488 17.9573C50.1553 18.4051 50.2489 19.0378 50.6967 19.3705C55.4163 22.8757 58.8838 27.8234 60.5623 33.4059H58.6637C57.0736 28.5253 53.9693 24.1475 49.8595 21.0154C49.8042 20.9733 49.7482 20.9326 49.6927 20.891C49.6663 20.8692 49.6388 20.8486 49.6103 20.8294C45.2039 17.5534 39.9788 15.8225 34.4776 15.8225C28.9762 15.8225 23.751 17.5535 19.3446 20.8297C19.3164 20.8487 19.2892 20.8689 19.2631 20.8906C19.2073 20.9323 19.1512 20.9731 19.0958 21.0154C14.986 24.1475 11.8817 28.5255 10.2915 33.4059H8.39339C9.9877 28.1119 13.2148 23.3498 17.5799 19.891C22.4308 16.047 28.274 14.0154 34.4775 14.0154C38.8001 14.0154 42.9331 14.9983 46.7613 16.9366C47.2588 17.1887 47.8668 16.9894 48.1187 16.4917C48.3707 15.994 48.1715 15.3863 47.6738 15.1343C43.5602 13.0514 39.1204 11.9951 34.4775 11.9951C27.8138 11.9951 21.5369 14.178 16.3252 18.3076C11.4784 22.1482 7.9375 27.4862 6.29039 33.4059H1.41412C0.634332 33.4059 0 34.0402 0 34.82V39.8536C0 40.6334 0.634332 41.2677 1.41412 41.2677H5.68017V44.9734H5.2958C4.5913 44.9734 3.98875 45.4998 3.89434 46.1981L3.67441 47.8255C3.59967 48.3783 3.98727 48.887 4.54012 48.9617C5.09338 49.0367 5.60165 48.6487 5.6764 48.096L5.82535 46.9935H11.8601L12.9339 54.9395H4.75156L5.04274 52.7847C5.11748 52.2318 4.72988 51.7232 4.17703 51.6484C3.62431 51.5739 3.1155 51.9614 3.04075 52.5141L2.65679 55.356C2.60197 55.7604 2.72467 56.1687 2.99321 56.4759C3.26176 56.7833 3.6499 56.9596 4.05811 56.9596H13.6274C14.0354 56.9596 14.4236 56.7833 14.6921 56.4761C14.9608 56.1687 15.0834 55.7605 15.0288 55.3561L13.7913 46.198C13.6969 45.4998 13.0944 44.9734 12.3899 44.9734H12.0054V41.2677H24.8346C25.3924 41.2677 25.8447 40.8155 25.8447 40.2576C25.8447 39.6998 25.3924 39.2476 24.8346 39.2476H2.02017V35.4261H66.9348V39.2476H29.5483C28.9905 39.2476 28.5382 39.6998 28.5382 40.2576C28.5382 40.8155 28.9905 41.2677 29.5483 41.2677H56.9497V44.9734H56.5653C55.8608 44.9734 55.2583 45.4998 55.1639 46.1981L53.9264 55.3562C53.8719 55.7607 53.9946 56.169 54.2631 56.4762C54.5317 56.7834 54.9197 56.9597 55.3278 56.9597H64.897C65.3051 56.9597 65.6931 56.7834 65.9617 56.4762C66.2302 56.1689 66.3529 55.7607 66.2983 55.3562L65.0608 46.1987C64.9669 45.5001 64.3644 44.9734 63.6595 44.9734H63.2751V41.2677H67.5409C68.3207 41.2677 68.955 40.6334 68.955 39.8536V34.82C68.955 34.0402 68.3207 33.4059 67.5409 33.4059ZM9.98514 44.9734H7.70033V41.2677H9.98514V44.9734ZM56.53 33.4059H50.0584V23.7998C52.9731 26.4116 55.2179 29.7411 56.53 33.4059ZM20.9168 22.1832C22.5634 21.0068 24.3287 20.0602 26.1814 19.3553V33.4059H20.9168V22.1832ZM28.2015 18.6924C29.9048 18.2191 31.6676 17.9401 33.4674 17.8642V33.4059H28.2015V18.6924ZM35.4876 17.8642C37.2874 17.9401 39.0502 18.2191 40.7535 18.6924V33.4059H35.4876V17.8642ZM42.7737 19.3553C44.6263 20.0602 46.3918 21.0068 48.0383 22.1832V33.4059H42.7737V19.3553ZM18.8966 23.7998V33.4059H12.425C13.7371 29.7411 15.9821 26.4116 18.8966 23.7998ZM64.2034 54.9395H56.0212L57.095 46.9935H63.1298L64.2034 54.9395ZM61.2547 44.9734H58.9699V41.2677H61.2547V44.9734Z" fill="#003E57"/>
</g>
<defs>
<clipPath id="clip0_1951_1034">
<rect width="68.955" height="68.955" fill="white"/>
</clipPath>
</defs>
</svg>
