<svg width="52" height="52" viewBox="0 0 52 52" fill="none" xmlns="http://www.w3.org/2000/svg">
<g clip-path="url(#clip0_1951_1023)">
<path d="M11.2626 40.4766C10.7193 40.4766 10.2765 40.9123 10.2656 41.4537V41.4735C10.2656 42.0238 10.7123 42.4705 11.2626 42.4705C11.8129 42.4705 12.2596 42.0238 12.2596 41.4735C12.2596 41.4665 12.2596 41.4595 12.2596 41.4537C12.2487 40.9123 11.8059 40.4766 11.2626 40.4766Z" fill="#003E57"/>
<path d="M43.0692 26.9343V7.57666C43.0692 4.33884 37.2646 2.5918 31.8034 2.5918C26.3423 2.5918 20.5376 4.33884 20.5376 7.57666V16.6203C18.37 15.2662 14.7486 14.5555 11.2658 14.5555C5.80425 14.5555 0 16.3025 0 19.5403V43.4677C0 46.7055 5.80425 48.4525 11.2658 48.4525C15.3584 48.4525 19.6439 47.4715 21.5346 45.617C23.4254 47.4715 27.7108 48.4525 31.8034 48.4525C33.5727 48.4525 35.4533 48.2781 36.9008 47.9829C37.929 48.2933 38.996 48.4525 40.0783 48.4525C46.1252 48.4525 51.045 43.5327 51.045 37.4858C51.045 32.5664 47.7363 28.2549 43.0692 26.9343ZM41.0753 13.5585C41.0753 13.9993 40.4389 14.7588 38.6452 15.4477C36.8222 16.1479 34.3286 16.5494 31.8034 16.5494C29.2783 16.5494 26.7847 16.1479 24.9617 15.4477C23.1679 14.7588 22.5316 13.9993 22.5316 13.5585V10.4967C24.6992 11.8508 28.3206 12.5615 31.8034 12.5615C35.2862 12.5615 38.9076 11.8508 41.0753 10.4967V13.5585ZM22.5316 16.4785C24.6992 17.8326 28.3206 18.5434 31.8034 18.5434C35.2862 18.5434 38.9076 17.8326 41.0753 16.4785V19.5403C41.0753 19.9812 40.4389 20.7406 38.6452 21.4295C36.8222 22.1297 34.3286 22.5312 31.8034 22.5312C29.2783 22.5312 26.7847 22.1297 24.9617 21.4295C23.1679 20.7406 22.5316 19.9812 22.5316 19.5403V16.4785ZM20.5376 25.5222C20.5376 25.963 19.9013 26.7224 18.1075 27.4114C16.2845 28.1116 13.7909 28.5131 11.2658 28.5131C8.74065 28.5131 6.24705 28.1116 4.42407 27.4114C2.63029 26.7224 1.99395 25.963 1.99395 25.5222V22.4604C4.16158 23.8145 7.78301 24.5252 11.2658 24.5252C14.7486 24.5252 18.37 23.8145 20.5376 22.4604V25.5222ZM1.99395 28.4422C4.16158 29.7963 7.78301 30.507 11.2658 30.507C14.7486 30.507 18.37 29.7963 20.5376 28.4422V31.504C20.5376 31.9449 19.9013 32.7043 18.1075 33.3932C16.2845 34.0934 13.7909 34.4949 11.2658 34.4949C8.74065 34.4949 6.24705 34.0934 4.42407 33.3932C2.63029 32.7043 1.99395 31.9449 1.99395 31.504V28.4422ZM22.5316 34.3426C24.1894 35.3669 26.6733 36.0332 29.1731 36.3214C29.1322 36.707 29.1116 37.096 29.1116 37.4858C29.1116 38.4583 29.237 39.4105 29.4843 40.3319C27.7119 40.1364 26.0405 39.7485 24.7502 39.2216C23.2178 38.5961 22.5316 37.899 22.5316 37.4858V34.3426ZM29.5657 34.359C27.6855 34.1553 25.9014 33.7289 24.5758 33.1587C23.1636 32.552 22.5316 31.8903 22.5316 31.504V28.3885C23.0312 28.6965 23.6477 28.9964 24.4083 29.2772C26.4023 30.014 29.0084 30.4541 31.6243 30.5024C30.6881 31.6329 29.9863 32.9418 29.5657 34.359ZM33.8718 28.4465C33.2919 28.4897 32.6984 28.5131 32.1025 28.5131C29.5552 28.5131 27.0024 28.1096 25.0992 27.4067C23.3257 26.7516 22.5316 25.9883 22.5316 25.5222V22.4604C24.6992 23.8145 28.3206 24.5252 31.8034 24.5252C35.2862 24.5252 38.9076 23.8145 41.0753 22.4604V25.5222C41.0753 25.8263 40.8381 26.1764 40.4023 26.5242C40.2933 26.5211 40.185 26.5191 40.0783 26.5191C37.8398 26.5191 35.7006 27.1859 33.8718 28.4465ZM24.9617 5.68747C26.7847 4.98726 29.2783 4.58574 31.8034 4.58574C34.3286 4.58574 36.8222 4.98726 38.6452 5.68747C40.4389 6.3764 41.0753 7.13581 41.0753 7.57666C41.0753 8.01751 40.4389 8.77692 38.6452 9.46585C36.8222 10.1661 34.3286 10.5676 31.8034 10.5676C29.2783 10.5676 26.7847 10.1661 24.9617 9.46585C23.1679 8.77692 22.5316 8.01751 22.5316 7.57666C22.5316 7.13581 23.1679 6.3764 24.9617 5.68747ZM4.42407 17.6511C6.24705 16.9509 8.74065 16.5494 11.2658 16.5494C13.7909 16.5494 16.2845 16.9509 18.1075 17.6511C19.9013 18.3401 20.5376 19.0995 20.5376 19.5403C20.5376 19.9812 19.9013 20.7406 18.1075 21.4295C16.2845 22.1297 13.7909 22.5312 11.2658 22.5312C8.74065 22.5312 6.24705 22.1297 4.42407 21.4295C2.63029 20.7406 1.99395 19.9812 1.99395 19.5403C1.99395 19.0995 2.63029 18.3401 4.42407 17.6511ZM18.1075 45.3569C16.2845 46.0571 13.7909 46.4586 11.2658 46.4586C8.74065 46.4586 6.24705 46.0571 4.42407 45.3569C2.63029 44.6679 1.99395 43.9085 1.99395 43.4677V40.3689C3.73787 41.4504 6.13995 41.9562 7.12095 42.1268C7.17898 42.137 7.23623 42.142 7.29309 42.142C7.7686 42.1416 8.18997 41.8001 8.27409 41.3156C8.36834 40.7731 8.00538 40.2571 7.46289 40.1625C3.88001 39.5394 2.11117 38.2647 2.00057 37.5653L1.9994 37.5579C1.99862 37.547 1.99667 37.5326 1.9955 37.5221L1.99472 37.5131C1.99433 37.5041 1.99395 37.4948 1.99395 37.4858V34.424C4.16158 35.7781 7.78301 36.4889 11.2658 36.4889C14.7486 36.4889 18.37 35.7781 20.5376 34.424V37.4858C20.5376 37.4948 20.5372 37.5041 20.5369 37.5131L20.5361 37.5224C20.5361 37.5244 20.5357 37.5256 20.5357 37.5256C20.5345 37.5365 20.5337 37.5415 20.533 37.5524L20.5322 37.5587C20.4204 38.2647 18.652 39.5394 15.0691 40.1625C14.5266 40.2571 14.1632 40.7731 14.2579 41.3156C14.342 41.8001 14.763 42.142 15.2389 42.142C15.2954 42.142 15.353 42.137 15.4106 42.1268C16.3916 41.9562 18.7933 41.4508 20.538 40.3673V43.4677C20.5376 43.9085 19.9013 44.6679 18.1075 45.3569ZM24.9617 45.3569C23.1679 44.6679 22.5316 43.9085 22.5316 43.4677V40.328C24.3881 41.48 27.3073 42.1973 30.2753 42.4061C31.0759 44.0004 32.2489 45.3639 33.6763 46.3912C33.0524 46.4348 32.4168 46.4586 31.8034 46.4586C29.2783 46.4586 26.7847 46.0571 24.9617 45.3569ZM40.0783 46.4586C35.1382 46.4586 31.1055 42.4621 31.1055 37.4858C31.1055 32.531 35.1191 28.5131 40.0783 28.5131C45.1056 28.5131 49.0511 32.6201 49.0511 37.4858C49.0511 42.4333 45.0258 46.4586 40.0783 46.4586Z" fill="#003E57"/>
<path d="M40.0729 36.4887C39.5231 36.4887 39.076 36.0416 39.076 35.4917C39.076 34.9418 39.5231 34.4947 40.0729 34.4947C40.3389 34.4947 40.5894 34.5983 40.7775 34.7872C41.1669 35.1763 41.7982 35.1763 42.1876 34.7872C42.5771 34.3978 42.5771 33.7665 42.1876 33.377C41.8667 33.0561 41.4855 32.8174 41.0699 32.6706V31.5038C41.0699 30.9531 40.6236 30.5068 40.0729 30.5068C39.5223 30.5068 39.076 30.9531 39.076 31.5038V32.6721C37.9154 33.0838 37.082 34.1921 37.082 35.4917C37.082 37.141 38.4237 38.4826 40.0729 38.4826C40.6228 38.4826 41.0699 38.9297 41.0699 39.4796C41.0699 40.0295 40.6228 40.4766 40.0729 40.4766C39.807 40.4766 39.5565 40.373 39.3684 40.1841C38.979 39.795 38.3477 39.795 37.9583 40.1841C37.5688 40.5735 37.5688 41.2048 37.9583 41.5943C38.2792 41.9152 38.6604 42.1539 39.076 42.3007V43.4675C39.076 44.0182 39.5223 44.4645 40.0729 44.4645C40.6236 44.4645 41.0699 44.0182 41.0699 43.4675V42.2992C42.2305 41.8875 43.0639 40.7792 43.0639 39.4796C43.0639 37.8303 41.7222 36.4887 40.0729 36.4887Z" fill="#003E57"/>
</g>
<defs>
<clipPath id="clip0_1951_1023">
<rect width="51.045" height="51.045" fill="white"/>
</clipPath>
</defs>
</svg>
