<svg width="61" height="61" viewBox="0 0 61 61" fill="none" xmlns="http://www.w3.org/2000/svg">
<g clip-path="url(#clip0_1951_1041)">
<path d="M57.2253 30.4768C57.2253 28.6583 55.7457 27.1787 53.9271 27.1787C52.1086 27.1787 50.6289 28.6583 50.6289 30.4768C50.6289 32.2954 52.1085 33.7749 53.927 33.7749C55.7456 33.7749 57.2253 32.2954 57.2253 30.4768ZM52.4147 30.4768C52.4147 29.643 53.0932 28.9645 53.927 28.9645C54.7609 28.9645 55.4393 29.643 55.4393 30.4768C55.4393 31.3107 54.7609 31.9892 53.927 31.9892C53.0932 31.9892 52.4147 31.3107 52.4147 30.4768Z" fill="#003E57"/>
<path d="M48.0359 17.5578C47.9497 17.5578 47.8638 17.5586 47.778 17.5603C47.285 17.57 46.8931 17.9774 46.9029 18.4705C46.9126 18.9636 47.3205 19.3538 47.8131 19.3457C47.8872 19.3443 47.9615 19.3435 48.0359 19.3435C54.1748 19.3435 59.1692 24.3379 59.1692 30.4769C59.1692 36.6158 54.1748 41.6102 48.0359 41.6102C41.8969 41.6102 36.9025 36.6158 36.9025 30.4769C36.9025 25.8553 39.6836 21.7829 43.9877 20.1021C44.447 19.9227 44.6741 19.405 44.4947 18.9457C44.3152 18.4864 43.7975 18.2594 43.3382 18.4387C40.9426 19.3743 38.8974 20.9887 37.4234 23.1076C37.0522 23.6413 36.7246 24.1982 36.4406 24.7735H29.2057V19.1813L32.7222 15.6648C33.2951 16.0148 33.9678 16.2167 34.6867 16.2167C36.7705 16.2167 38.4659 14.5214 38.4659 12.4375C38.4659 10.3538 36.7706 8.65832 34.6867 8.65832C32.6028 8.65832 30.9075 10.3536 30.9075 12.4375C30.9075 13.1566 31.1094 13.8293 31.4594 14.402L27.6814 18.18C27.5139 18.3474 27.4199 18.5746 27.4199 18.8114V24.7734H25.1168V22.0584C25.1168 21.5653 24.717 21.1655 24.2239 21.1655C23.7308 21.1655 23.331 21.5653 23.331 22.0584V25.1871L20.7758 26.8823L20.0657 26.4186V20.9197C21.72 20.5173 22.9521 19.0242 22.9521 17.248C22.9521 15.1641 21.2567 13.4688 19.1728 13.4688C17.0891 13.4688 15.3936 15.1641 15.3936 17.248C15.3936 19.0242 16.6257 20.5173 18.28 20.9197V25.2522L17.7693 24.9188C17.6242 24.824 17.4544 24.7734 17.2811 24.7734H15.9768V23.3212C15.9768 22.8281 15.577 22.4283 15.0839 22.4283C14.5907 22.4283 14.191 22.8281 14.191 23.3212V25.2343L12.1661 26.8373L11.046 26.0491V18.8113C11.046 18.5745 10.9519 18.3473 10.7844 18.1799L7.00637 14.4019C7.35639 13.829 7.5583 13.1564 7.5583 12.4374C7.5583 10.3536 5.86299 8.6582 3.77909 8.6582C1.69519 8.6582 0 10.3536 0 12.4375C0 14.5214 1.69531 16.2167 3.77921 16.2167C4.49829 16.2167 5.17094 16.0147 5.7437 15.6648L9.26016 19.1813V24.8313C9.16135 24.7946 9.05706 24.7734 8.95039 24.7734H4.50079C4.21971 24.7734 3.95517 24.9057 3.78647 25.1306L0.178579 29.9411C-0.0595264 30.2585 -0.0595264 30.6951 0.178579 31.0126L3.78647 35.8232C3.95517 36.0481 4.21971 36.1803 4.50079 36.1803H9.26016V41.7726L5.7437 45.2891C5.17082 44.939 4.49817 44.7371 3.77921 44.7371C1.69531 44.737 0 46.4323 0 48.5162C0 50.6 1.69531 52.2954 3.77921 52.2954C5.86311 52.2954 7.55842 50.6001 7.55842 48.5162C7.55842 47.7971 7.35639 47.1245 7.00649 46.5517L10.7845 42.7737C10.952 42.6063 11.0461 42.3792 11.0461 42.1424V36.1803H14.1911V37.6325C14.1911 38.1257 14.5909 38.5254 15.084 38.5254C15.5771 38.5254 15.9769 38.1257 15.9769 37.6325V36.1803H18.28V40.0341C16.6257 40.4365 15.3936 41.9295 15.3936 43.7058C15.3936 45.7897 17.0889 47.485 19.1728 47.485C21.2567 47.485 22.9521 45.7897 22.9521 43.7058C22.9521 41.9295 21.72 40.4365 20.0657 40.0341V36.1803H23.331V38.8953C23.331 39.3885 23.7308 39.7882 24.2239 39.7882C24.717 39.7882 25.1168 39.3885 25.1168 38.8953V36.1803H27.4199V42.1424C27.4199 42.3792 27.5139 42.6063 27.6814 42.7737L31.4594 46.5517C31.1094 47.1246 30.9075 47.7973 30.9075 48.5162C30.9075 50.6 32.6028 52.2954 34.6867 52.2954C36.7705 52.2954 38.4659 50.6001 38.4659 48.5162C38.4659 46.4323 36.7706 44.737 34.6867 44.737C33.9677 44.737 33.295 44.939 32.7222 45.2889L29.2057 41.7725V36.1802H30.2952C30.7883 36.1802 31.1881 35.7804 31.1881 35.2873C31.1881 34.7942 30.7883 34.3944 30.2952 34.3944H4.94724L2.00901 30.4769L4.94724 26.5592H8.66775L11.6836 28.6816C12.0071 28.909 12.4416 28.8968 12.7517 28.6514L15.3945 26.5592H17.0153L20.2912 28.6989C20.5898 28.894 20.9759 28.8925 21.2732 28.6955L24.4932 26.5593H35.7217C35.4115 27.5354 35.2191 28.5493 35.1487 29.5841H28.3129C27.8198 29.5841 27.42 29.9839 27.42 30.477C27.42 30.9701 27.8198 31.3699 28.3129 31.3699H35.1483C35.2201 32.4171 35.4171 33.4302 35.7248 34.3947H34.4697C33.9766 34.3947 33.5768 34.7944 33.5768 35.2876C33.5768 35.7807 33.9766 36.1805 34.4697 36.1805H36.4463C38.5567 40.4514 42.9586 43.3961 48.0361 43.3961C55.1595 43.396 60.955 37.6005 60.955 30.4769C60.955 23.3532 55.1595 17.5578 48.0359 17.5578ZM34.6867 10.4441C35.7858 10.4441 36.6801 11.3383 36.6801 12.4375C36.6801 13.5367 35.7859 14.431 34.6867 14.431C33.5875 14.431 32.6933 13.5367 32.6933 12.4375C32.6933 11.3383 33.5875 10.4441 34.6867 10.4441ZM17.1794 17.2481C17.1794 16.1489 18.0736 15.2547 19.1728 15.2547C20.2721 15.2547 21.1663 16.1489 21.1663 17.2481C21.1663 18.3472 20.2721 19.2415 19.1728 19.2415C18.0736 19.2414 17.1794 18.3472 17.1794 17.2481ZM1.78579 12.4375C1.78579 11.3384 2.68 10.4441 3.77921 10.4441C4.87842 10.4441 5.77263 11.3383 5.77263 12.4375C5.77263 13.5367 4.87842 14.431 3.77921 14.431C2.68 14.431 1.78579 13.5367 1.78579 12.4375ZM3.77921 50.5096C2.68 50.5096 1.78579 49.6154 1.78579 48.5162C1.78579 47.417 2.68 46.5228 3.77921 46.5228C4.87842 46.5228 5.77263 47.417 5.77263 48.5162C5.77263 49.6154 4.87842 50.5096 3.77921 50.5096ZM21.1663 43.7057C21.1663 44.8049 20.2721 45.6991 19.1728 45.6991C18.0738 45.6991 17.1794 44.8049 17.1794 43.7057C17.1794 42.6066 18.0736 41.7122 19.1728 41.7122C20.2721 41.7124 21.1663 42.6066 21.1663 43.7057ZM36.6801 48.5162C36.6801 49.6153 35.7859 50.5096 34.6867 50.5096C33.5875 50.5096 32.6933 49.6154 32.6933 48.5162C32.6933 47.417 33.5875 46.5228 34.6867 46.5228C35.7858 46.5228 36.6801 47.417 36.6801 48.5162Z" fill="#003E57"/>
<path d="M41.4883 26.8452V34.1094C41.4883 35.9147 42.9569 37.3833 44.7622 37.3833H44.8106C46.6159 37.3833 48.0845 35.9147 48.0845 34.1094V26.8452C48.0845 25.0399 46.6159 23.5713 44.8106 23.5713H44.7622C42.957 23.5713 41.4883 25.0399 41.4883 26.8452ZM43.2741 26.8452C43.2741 26.0246 43.9416 25.3571 44.7622 25.3571H44.8106C45.6312 25.3571 46.2987 26.0246 46.2987 26.8452V34.1094C46.2987 34.93 45.6312 35.5975 44.8106 35.5975H44.7622C43.9416 35.5975 43.2741 34.93 43.2741 34.1094V26.8452Z" fill="#003E57"/>
</g>
<defs>
<clipPath id="clip0_1951_1041">
<rect width="60.955" height="60.955" fill="white"/>
</clipPath>
</defs>
</svg>
