<svg width="55" height="55" viewBox="0 0 55 55" fill="none" xmlns="http://www.w3.org/2000/svg">
<g clip-path="url(#clip0_1976_1007)">
<path d="M20.5003 19.0231H41.9839C42.4284 19.0231 42.7889 18.6627 42.7889 18.2181C42.7889 17.7735 42.4284 17.4131 41.9839 17.4131H20.5003C20.0557 17.4131 19.6953 17.7735 19.6953 18.2181C19.6953 18.6627 20.0557 19.0231 20.5003 19.0231Z" fill="#003E57"/>
<path d="M20.5003 24.9889H41.9839C42.4284 24.9889 42.7889 24.6285 42.7889 24.1839C42.7889 23.7393 42.4284 23.3789 41.9839 23.3789H20.5003C20.0557 23.3789 19.6953 23.7393 19.6953 24.1839C19.6953 24.6285 20.0557 24.9889 20.5003 24.9889Z" fill="#003E57"/>
<path d="M20.5003 30.9557H41.9839C42.4284 30.9557 42.7889 30.5953 42.7889 30.1507C42.7889 29.7061 42.4284 29.3457 41.9839 29.3457H20.5003C20.0557 29.3457 19.6953 29.7061 19.6953 30.1507C19.6953 30.5953 20.0557 30.9557 20.5003 30.9557Z" fill="#003E57"/>
<path d="M49.8809 10.3054C49.874 10.1037 49.7897 9.90638 49.6465 9.7633L40.1181 0.234836C39.9691 0.0858566 39.7593 -0.000976562 39.5488 -0.000976562H15.7618C14.021 -0.000976562 12.6048 1.4153 12.6048 3.15615V3.76237H11.9986C10.3708 3.76237 9.02705 5.00079 8.85939 6.58482H8.23525C6.4944 6.58482 5.07812 8.00109 5.07812 9.74194V36.802C5.07812 37.2466 5.43855 37.607 5.88313 37.607C6.32771 37.607 6.68813 37.2466 6.68813 36.802V9.74184C6.68813 8.88875 7.38216 8.19473 8.23525 8.19473H8.84147V48.9744C8.84147 50.7153 10.2577 52.1316 11.9986 52.1316H32.4773C32.9219 52.1316 33.2823 51.7711 33.2823 51.3266C33.2823 50.882 32.9219 50.5216 32.4773 50.5216H11.9986C11.1455 50.5216 10.4515 49.8275 10.4515 48.9744V6.91938C10.4515 6.06629 11.1455 5.37227 11.9986 5.37227H12.6048V9.75729C12.6048 10.2019 12.9652 10.5623 13.4098 10.5623C13.8544 10.5623 14.2148 10.2019 14.2148 9.75729V3.15615C14.2148 2.30305 14.9088 1.60903 15.7618 1.60903H38.7438V7.98081C38.7438 9.72144 40.1598 11.1375 41.9004 11.1375H48.2722V45.2111C48.2722 46.0642 47.5782 46.7582 46.7251 46.7582H15.7618C14.9087 46.7582 14.2148 46.0642 14.2148 45.2111V13.2656C14.2148 12.821 13.8544 12.4606 13.4098 12.4606C12.9652 12.4606 12.6048 12.821 12.6048 13.2656V45.2111C12.6048 46.952 14.0211 48.3682 15.7618 48.3682H44.509V48.9744C44.509 49.8275 43.815 50.5216 42.9619 50.5216H35.9855C35.5409 50.5216 35.1805 50.882 35.1805 51.3266C35.1805 51.7711 35.5409 52.1316 35.9855 52.1316H40.7082C40.5547 52.8242 39.9367 53.344 39.1985 53.344H8.23525C7.38216 53.344 6.68813 52.65 6.68813 51.7969V40.3102C6.68813 39.8657 6.32771 39.5052 5.88313 39.5052C5.43855 39.5052 5.07812 39.8657 5.07812 40.3102V51.7969C5.07812 53.5378 6.4944 54.954 8.23525 54.954H39.1986C40.8265 54.954 42.1702 53.7156 42.3378 52.1316H42.962C44.7028 52.1316 46.1191 50.7153 46.1191 48.9744V48.3682H46.7253C48.4662 48.3682 49.8824 46.952 49.8824 45.2111V10.3325C49.8823 10.3235 49.8813 10.3145 49.8809 10.3054ZM41.9006 9.52749C41.0477 9.52749 40.3539 8.83368 40.3539 7.98081V2.74742L47.1339 9.52749H41.9006Z" fill="#003E57"/>
</g>
<defs>
<clipPath id="clip0_1976_1007">
<rect width="54.955" height="54.955" fill="white"/>
</clipPath>
</defs>
</svg>
