<svg width="45" height="45" viewBox="0 0 45 45" fill="none" xmlns="http://www.w3.org/2000/svg">
<g clip-path="url(#clip0_1979_1042)">
<path d="M41.1185 33.9491C40.8144 33.7487 40.4058 33.833 40.2054 34.1369C36.2682 40.1132 29.6508 43.6813 22.5039 43.6813C10.7976 43.6813 1.32228 34.2077 1.32228 22.4996C1.32228 18.6997 2.33997 14.9726 4.2654 11.7217C4.45085 11.4085 4.34741 11.0041 4.03416 10.8186C3.72101 10.6332 3.31662 10.7366 3.13108 11.0499C1.08532 14.5041 0.00390625 18.4634 0.00390625 22.4996C0.00390625 34.9346 10.0672 44.9996 22.5039 44.9996C30.0956 44.9996 37.1245 41.2099 41.3063 34.8621C41.5066 34.5581 41.4225 34.1493 41.1185 33.9491Z" fill="#003E58"/>
<path d="M22.4995 -0.000976562C15.5511 -0.000976562 9.10042 3.1356 4.80113 8.60437C4.57613 8.89055 4.62579 9.30496 4.91205 9.52996C5.19822 9.75496 5.61263 9.7053 5.83763 9.41904C9.88529 4.27037 15.9582 1.31739 22.4995 1.31739C34.2058 1.31739 43.6811 10.7909 43.6811 22.499C43.6811 25.7274 42.9737 28.8266 41.5788 31.7106C41.4203 32.0383 41.5575 32.4325 41.8852 32.5911C42.2108 32.7486 42.6061 32.6145 42.7657 32.2847C44.2479 29.2203 44.9995 25.928 44.9995 22.4991C44.9995 10.0641 34.9362 -0.000976562 22.4995 -0.000976562Z" fill="#003E58"/>
<path d="M21.5408 42.2464C32.8514 42.7894 42.2703 33.7862 42.2703 22.4994C42.2703 11.5732 33.4283 2.72949 22.5004 2.72949C11.5742 2.72949 2.73047 11.5715 2.73047 22.4994C2.73047 32.0464 9.51814 40.0519 18.569 41.8782C18.9258 41.9506 19.2736 41.7193 19.3455 41.3625C19.4175 41.0055 19.1866 40.6579 18.8298 40.586C10.4372 38.8924 4.04884 31.4664 4.04884 22.4994C4.04884 12.3252 12.3262 4.04786 22.5004 4.04786C32.6746 4.04786 40.9519 12.3252 40.9519 22.4994C40.9519 33.0235 32.1277 41.4339 21.604 40.9295C21.2416 40.9107 20.9314 41.1927 20.914 41.5564C20.8965 41.92 21.1771 42.229 21.5408 42.2464Z" fill="#003E58"/>
<path d="M15.3747 7.73139C15.2032 7.41032 14.8039 7.2893 14.4827 7.4606C13.6926 7.88282 12.9292 8.37193 12.214 8.91457C11.9239 9.13456 11.8672 9.54809 12.0872 9.83812C12.3069 10.1278 12.7204 10.1852 13.0107 9.96495C13.6709 9.46424 14.3751 9.01283 15.104 8.62339C15.4251 8.45183 15.5464 8.05245 15.3747 7.73139Z" fill="#003E58"/>
<path d="M18.1724 7.38148C18.9668 7.15455 19.7869 6.98949 20.6098 6.89096C20.9712 6.84763 21.2293 6.51945 21.186 6.15804C21.1427 5.79655 20.8142 5.53885 20.4531 5.58183C19.5609 5.68871 18.6717 5.86765 17.8102 6.11392C17.4603 6.21394 17.2575 6.57877 17.3576 6.92875C17.458 7.28032 17.8239 7.48132 18.1724 7.38148Z" fill="#003E58"/>
<path d="M12.2435 36.1052C12.5356 36.3258 12.9488 36.2653 13.1668 35.9765C13.3863 35.6859 13.3286 35.2726 13.0381 35.0532C12.3776 34.5543 11.7514 33.9989 11.177 33.4021C10.9244 33.14 10.5072 33.132 10.2449 33.3844C9.98272 33.6369 9.97481 34.0542 10.2272 34.3165C10.8496 34.963 11.528 35.5647 12.2435 36.1052Z" fill="#003E58"/>
<path d="M26.5382 7.27999C26.8328 7.27999 27.101 7.08109 27.1768 6.78262C27.2662 6.42965 27.0526 6.07106 26.6997 5.98167C25.8316 5.76168 24.9375 5.60945 24.0424 5.52912C23.6789 5.49608 23.3594 5.76414 23.3269 6.12669C23.2944 6.48933 23.5619 6.80969 23.9245 6.84221C25.5486 6.98793 26.2948 7.27999 26.5382 7.27999Z" fill="#003E58"/>
<path d="M7.04183 19.6273C7.19213 18.8131 7.40887 18.0053 7.68616 17.226C7.80833 16.8831 7.62921 16.5061 7.28617 16.384C6.94357 16.262 6.56626 16.4409 6.44418 16.784C6.14333 17.6291 5.90822 18.5053 5.74545 19.388C5.67935 19.746 5.91595 20.0898 6.27402 20.1559C6.63798 20.2223 6.97671 19.9802 7.04183 19.6273Z" fill="#003E58"/>
<path d="M5.469 22.968C5.49325 23.8674 5.58879 24.7691 5.75306 25.6479C5.82003 26.0062 6.16439 26.2415 6.5221 26.1748C6.8799 26.1079 7.1158 25.7635 7.04892 25.4057C6.89739 24.5949 6.80915 23.7628 6.78683 22.9324C6.77716 22.5683 6.4742 22.2823 6.11016 22.2912C5.74629 22.3011 5.45915 22.6041 5.469 22.968Z" fill="#003E58"/>
<path d="M8.01863 31.4822C8.21182 31.7929 8.61866 31.8853 8.92646 31.6941C9.23566 31.5018 9.33058 31.0954 9.13836 30.7862C8.7011 30.0829 8.31729 29.3399 7.99754 28.578C7.85665 28.2423 7.4702 28.0845 7.13463 28.2254C6.79898 28.3663 6.64112 28.7526 6.78201 29.0883C7.12865 29.9143 7.54473 30.7197 8.01863 31.4822Z" fill="#003E58"/>
<path d="M10.5257 11.3046C10.2501 11.0669 9.83387 11.0974 9.59595 11.3731C9.00919 12.053 8.47262 12.7843 8.00108 13.5465C7.80948 13.8562 7.9052 14.2625 8.21483 14.4539C8.52245 14.6442 8.92947 14.5517 9.12222 14.2401C9.55736 13.5367 10.0526 12.8618 10.5942 12.2342C10.832 11.9587 10.8014 11.5424 10.5257 11.3046Z" fill="#003E58"/>
<path d="M35.0712 10.9953C34.8252 10.7268 34.4083 10.7084 34.1398 10.9543C33.8713 11.2002 33.853 11.6172 34.0988 11.8857C34.6582 12.4965 35.1731 13.1563 35.6288 13.8465C35.8296 14.1507 36.2386 14.2337 36.5422 14.0334C36.846 13.8327 36.9296 13.4238 36.729 13.12C36.2351 12.3721 35.6772 11.6573 35.0712 10.9953Z" fill="#003E58"/>
<path d="M32.3822 8.61601C31.6509 8.09447 30.8728 7.62794 30.0698 7.2291C29.7434 7.06711 29.3481 7.20036 29.1861 7.52634C29.0242 7.85242 29.1573 8.24801 29.4833 8.41C31.4295 9.37626 31.5395 9.81203 31.999 9.81203C32.2049 9.81203 32.4076 9.71579 32.5362 9.53552C32.7477 9.23898 32.6787 8.82739 32.3822 8.61601Z" fill="#003E58"/>
<path d="M29.5141 36.5736C28.7731 36.9435 27.9973 37.2566 27.2083 37.5037C26.861 37.6126 26.6676 37.9824 26.7764 38.3299C26.8852 38.677 27.2545 38.8705 27.6026 38.7618C28.4582 38.4935 29.2996 38.1542 30.1031 37.753C30.4287 37.5904 30.561 37.1945 30.3983 36.8687C30.2356 36.5431 29.8398 36.4108 29.5141 36.5736Z" fill="#003E58"/>
<path d="M32.3064 34.7898C32.022 35.0171 31.9755 35.4319 32.2027 35.7163C32.43 36.0008 32.8448 36.0471 33.1292 35.82C33.8301 35.2601 34.4918 34.6401 35.0961 33.9773C35.3414 33.7083 35.3221 33.2914 35.0531 33.0461C34.7841 32.8008 34.3672 32.82 34.1219 33.0891C33.5641 33.7008 32.9533 34.2731 32.3064 34.7898Z" fill="#003E58"/>
<path d="M21.3862 39.5035C22.2546 39.5596 23.1602 39.5516 24.0801 39.4671C24.4426 39.4337 24.7095 39.1128 24.6762 38.7503C24.6428 38.3878 24.3225 38.1206 23.9594 38.1542C23.1389 38.2297 22.2936 38.2412 21.4713 38.188C21.1073 38.1645 20.7944 38.4399 20.7709 38.8032C20.7475 39.1665 21.0229 39.48 21.3862 39.5035Z" fill="#003E58"/>
<path d="M15.3187 37.9562C16.0172 38.2812 17.6649 38.9212 18.0275 38.9212C18.315 38.9212 18.5792 38.7317 18.6614 38.4415C18.7606 38.0912 18.557 37.7268 18.2068 37.6276C17.4108 37.4022 16.6262 37.1105 15.875 36.7609C15.5451 36.6074 15.1528 36.7503 14.9992 37.0805C14.8456 37.4105 14.9887 37.8026 15.3187 37.9562Z" fill="#003E58"/>
<path d="M38.6796 25.7419C38.9982 25.7419 39.2784 25.5104 39.3299 25.1858C39.4696 24.3038 39.5404 23.4 39.5404 22.495L39.5404 22.4629C39.5404 22.0988 39.2453 21.8037 38.8812 21.8037C38.517 21.8037 38.222 22.0988 38.222 22.4629L38.2221 22.4996C38.2221 23.3312 38.1567 24.1655 38.0278 24.9796C37.9647 25.3785 38.2725 25.7419 38.6796 25.7419Z" fill="#003E58"/>
<path d="M36.3228 31.3215C36.6371 31.5051 37.0408 31.3994 37.2245 31.085C37.6778 30.3093 38.072 29.4918 38.3961 28.6554C38.5277 28.3159 38.3591 27.9341 38.0197 27.8026C37.6803 27.6709 37.2984 27.8396 37.1669 28.179C36.868 28.9503 36.5044 29.7043 36.0863 30.4198C35.9026 30.7343 36.0085 31.1378 36.3228 31.3215Z" fill="#003E58"/>
<path d="M38.3829 16.3096C38.2505 15.9704 37.8685 15.8024 37.5292 15.935C37.1901 16.0673 37.0223 16.4495 37.1546 16.7887C37.4552 17.5593 37.6961 18.3604 37.8706 19.1696C37.9474 19.5255 38.2984 19.7519 38.6539 19.6749C39.0099 19.5982 39.2361 19.2475 39.1593 18.8917C38.9701 18.0141 38.7089 17.1454 38.3829 16.3096Z" fill="#003E58"/>
<path d="M15.4967 22.9884L22.2632 25.694C22.42 25.7567 22.5956 25.7569 22.7527 25.6939L29.5136 22.9883C29.8715 22.8451 30.0306 22.4263 29.8583 22.0815L23.0918 8.5541C22.8492 8.06956 22.1552 8.06877 21.9126 8.55437L15.1517 22.0816C14.9795 22.4262 15.1385 22.8453 15.4967 22.9884ZM22.5025 10.323L28.3587 22.0305L22.5078 24.3719L16.6513 22.0302L22.5025 10.323Z" fill="#003E58"/>
<path d="M23.0689 36.4942L29.8298 25.4259C30.159 24.8869 29.6099 24.2352 29.0225 24.4703L22.5008 27.0779L15.9847 24.4703C15.3982 24.2355 14.8473 24.886 15.1773 25.4262L21.9438 36.4945C22.2006 36.9142 22.812 36.9148 23.0689 36.4942ZM22.2558 28.3999C22.413 28.4628 22.5882 28.4627 22.7454 28.4L27.6713 26.4303L22.5061 34.8864L17.3373 26.4316L22.2558 28.3999Z" fill="#003E58"/>
</g>
<defs>
<clipPath id="clip0_1979_1042">
<rect width="45" height="45" fill="white"/>
</clipPath>
</defs>
</svg>
