<svg width="24" height="24" viewBox="0 0 24 24" fill="none" xmlns="http://www.w3.org/2000/svg">
<path d="M23.9359 11.7656L18.5233 2.39062C18.4395 2.24559 18.2848 2.15625 18.1173 2.15625H14.3672C14.1997 2.15625 14.045 2.24559 13.9613 2.39062C13.8775 2.53565 13.8775 2.71434 13.9613 2.85937L19.2386 12L13.9613 21.1406C13.8775 21.2856 13.8775 21.4643 13.9613 21.6093C14.045 21.7543 14.1997 21.8437 14.3672 21.8437H18.1173C18.2848 21.8437 18.4395 21.7543 18.5233 21.6093L23.9359 12.2343C24.0196 12.0893 24.0196 11.9106 23.9359 11.7656ZM17.8467 20.9062H15.1791L20.1858 12.2343C20.2695 12.0893 20.2695 11.9106 20.1858 11.7656L15.1791 3.09375H17.8467L22.9887 12L17.8467 20.9062Z" fill="black"/>
<path d="M16.9866 11.7656L11.574 2.39062C11.4903 2.24559 11.3355 2.15625 11.1681 2.15625H7.41798C7.2505 2.15625 7.09576 2.24559 7.01204 2.39062C6.92828 2.53565 6.92828 2.71434 7.01204 2.85937L8.66349 5.71972C8.79286 5.94383 9.0796 6.02075 9.3038 5.89128C9.528 5.76181 9.60483 5.47517 9.47536 5.25097L8.2299 3.09375H10.8974L16.0395 12L10.8974 20.9062H8.2299L13.2365 12.2343C13.3203 12.0893 13.3203 11.9106 13.2365 11.7656L11.585 8.90505C11.4555 8.68085 11.1689 8.60402 10.9447 8.73349C10.7205 8.86296 10.6437 9.1496 10.7731 9.3738L12.2893 12L7.01204 21.1406C6.92828 21.2856 6.92828 21.4643 7.01204 21.6093C7.09576 21.7543 7.2505 21.8437 7.41798 21.8437H11.1681C11.3355 21.8437 11.4903 21.7543 11.574 21.6093L16.9866 12.2343C17.0703 12.0893 17.0703 11.9106 16.9866 11.7656Z" fill="black"/>
<path d="M10.0375 11.7656L4.62482 2.39062C4.5411 2.24559 4.38637 2.15625 4.21889 2.15625H0.46876C0.301276 2.15625 0.146542 2.24559 0.062824 2.39062C-0.0209413 2.53565 -0.0209413 2.71434 0.062824 2.85937L5.34013 12L0.062824 21.1406C-0.0209413 21.2856 -0.0209413 21.4643 0.062824 21.6093C0.146542 21.7543 0.301276 21.8437 0.46876 21.8437H4.21889C4.38637 21.8437 4.5411 21.7543 4.62482 21.6093L10.0375 12.2343C10.1212 12.0893 10.1212 11.9106 10.0375 11.7656ZM3.94828 20.9062H1.28068L6.28733 12.2343C6.3711 12.0893 6.3711 11.9106 6.28733 11.7656L1.28068 3.09375H3.94828L9.09026 12L3.94828 20.9062Z" fill="black"/>
<path d="M10.5939 7.3125C10.5939 7.05366 10.384 6.84375 10.1251 6.84375H10.1248C9.86592 6.84375 9.65625 7.05366 9.65625 7.3125C9.65625 7.57134 9.86625 7.78125 10.1251 7.78125C10.384 7.78125 10.5939 7.57134 10.5939 7.3125Z" fill="black"/>
</svg>
