<svg width="24" height="24" viewBox="0 0 24 24" fill="none" xmlns="http://www.w3.org/2000/svg">
<g clip-path="url(#clip0_2043_993)">
<path d="M14.8429 13.7903C15.4874 12.9926 15.4393 11.8173 14.6983 11.0761C13.9056 10.2834 12.616 10.2832 11.8233 11.0757L11.1438 11.7552C10.8944 12.0048 10.4883 12.0046 10.2385 11.755C10.1175 11.634 10.051 11.4732 10.0509 11.3022C10.0509 11.1314 10.1175 10.9706 10.2382 10.8498L11.3879 9.70004C11.66 9.42813 11.66 8.98721 11.3879 8.7153C11.116 8.44321 10.6751 8.44321 10.4032 8.7153L10.0856 9.03281L9.78261 8.72977C9.5107 8.45786 9.06978 8.45786 8.79768 8.72977C8.52577 9.00186 8.52577 9.4426 8.79768 9.71469L9.10896 10.0258C8.81691 10.3863 8.65816 10.8322 8.65816 11.3026C8.65816 11.8455 8.86983 12.356 9.2538 12.74C9.65004 13.1364 10.1708 13.3345 10.6914 13.3345C11.2119 13.3345 11.7325 13.1364 12.1286 12.7403L12.8081 12.0608C13.0576 11.8112 13.4638 11.8114 13.7135 12.061C13.9631 12.3108 13.9633 12.7169 13.7137 12.9663L12.3803 14.2997C12.1082 14.5716 12.1082 15.0125 12.3803 15.2844C12.5162 15.4204 12.6944 15.4886 12.8727 15.4884C13.0509 15.4884 13.2292 15.4204 13.3651 15.2844L13.8664 14.7832L14.1694 15.0861C14.3055 15.2221 14.4837 15.2901 14.6618 15.2901C14.8402 15.2901 15.0183 15.2221 15.1544 15.0861C15.4263 14.8142 15.4263 14.3733 15.1544 14.1013L14.8429 13.7903Z" fill="black"/>
<path d="M16.5338 4.4249C16.1392 4.81949 15.9219 5.34409 15.9219 5.90201C15.9219 6.46011 16.1392 6.98471 16.5338 7.3793C16.941 7.78653 17.4761 7.99014 18.0111 7.99014C18.5461 7.99014 19.081 7.78653 19.4882 7.3793C20.3029 6.56467 20.3029 5.23935 19.4882 4.42471C18.6738 3.61026 17.3483 3.61044 16.5338 4.4249ZM18.5035 6.39456C18.2319 6.66611 17.7901 6.66592 17.5186 6.39456C17.2472 6.12302 17.2472 5.68118 17.5186 5.40964C17.7901 5.13828 18.2319 5.13828 18.5035 5.40964C18.775 5.68118 18.775 6.12302 18.5035 6.39456Z" fill="black"/>
<path d="M23.5743 0.964701C23.5633 0.596476 23.2676 0.300578 22.8996 0.289408L13.4056 0.000284808C13.2118 -0.00520835 13.0254 0.0689493 12.8896 0.206278L1.17082 12.0457C-0.265274 13.4966 -0.265274 15.8574 1.17082 17.3081L6.71214 22.9064C7.40996 23.6115 8.33848 23.9999 9.32652 23.9999C10.3144 23.9999 11.2429 23.6115 11.9409 22.9064L23.6595 11.067C23.7937 10.9315 23.8664 10.7469 23.8605 10.5563L23.5743 0.964701ZM10.951 21.9266C10.5167 22.3655 9.93974 22.6072 9.32652 22.6072C8.71312 22.6072 8.13615 22.3655 7.70183 21.9266L2.16069 16.3283C1.25926 15.4178 1.25926 13.9361 2.16069 13.0255L13.6661 1.40159L22.2018 1.6616L22.4596 10.2996L10.951 21.9266Z" fill="black"/>
</g>
<defs>
<clipPath id="clip0_2043_993">
<rect width="24" height="24" fill="white"/>
</clipPath>
</defs>
</svg>
