<svg width="66" height="66" viewBox="0 0 66 66" fill="none" xmlns="http://www.w3.org/2000/svg">
<g filter="url(#filter0_d_1960_1089)">
<mask id="path-1-outside-1_1960_1089" maskUnits="userSpaceOnUse" x="4" y="0" width="62" height="62" fill="black">
<rect fill="white" x="4" width="62" height="62"/>
<path d="M36.8154 4C39.5769 4 41.8154 6.23858 41.8154 9V24.1865H57C59.7614 24.1865 62 26.4251 62 29.1865V32.8145C62 35.5759 59.7614 37.8145 57 37.8145H41.8154V53C41.8154 55.7614 39.5769 58 36.8154 58H33.1875C30.4261 58 28.1875 55.7614 28.1875 53V37.8145H13C10.2386 37.8145 8 35.5759 8 32.8145V29.1865C8 26.4251 10.2386 24.1865 13 24.1865H28.1875V9C28.1875 6.23858 30.4261 4 33.1875 4H36.8154Z"/>
</mask>
<path d="M36.8154 4C39.5769 4 41.8154 6.23858 41.8154 9V24.1865H57C59.7614 24.1865 62 26.4251 62 29.1865V32.8145C62 35.5759 59.7614 37.8145 57 37.8145H41.8154V53C41.8154 55.7614 39.5769 58 36.8154 58H33.1875C30.4261 58 28.1875 55.7614 28.1875 53V37.8145H13C10.2386 37.8145 8 35.5759 8 32.8145V29.1865C8 26.4251 10.2386 24.1865 13 24.1865H28.1875V9C28.1875 6.23858 30.4261 4 33.1875 4H36.8154Z" fill="#BFBFBF"/>
<path d="M41.8154 9H45.8154H41.8154ZM41.8154 24.1865H37.8154V28.1865H41.8154V24.1865ZM57 24.1865V20.1865V24.1865ZM62 29.1865H66H62ZM62 32.8145H66H62ZM57 37.8145V41.8145V37.8145ZM41.8154 37.8145V33.8145H37.8154V37.8145H41.8154ZM41.8154 53H45.8154H41.8154ZM28.1875 53H24.1875H28.1875ZM28.1875 37.8145H32.1875V33.8145H28.1875V37.8145ZM13 37.8145V41.8145V37.8145ZM8 32.8145H12H8ZM8 29.1865H4H8ZM13 24.1865V20.1865V24.1865ZM28.1875 24.1865V28.1865H32.1875V24.1865H28.1875ZM28.1875 9H24.1875H28.1875ZM33.1875 4V0V4ZM36.8154 4V8C37.3677 8 37.8154 8.44772 37.8154 9H41.8154H45.8154C45.8154 4.02944 41.786 0 36.8154 0V4ZM41.8154 9H37.8154V24.1865H41.8154H45.8154V9H41.8154ZM41.8154 24.1865V28.1865H57V24.1865V20.1865H41.8154V24.1865ZM57 24.1865V28.1865C57.5523 28.1865 58 28.6342 58 29.1865H62H66C66 24.216 61.9706 20.1865 57 20.1865V24.1865ZM62 29.1865H58V32.8145H62H66V29.1865H62ZM62 32.8145H58C58 33.3667 57.5523 33.8145 57 33.8145V37.8145V41.8145C61.9706 41.8145 66 37.785 66 32.8145H62ZM57 37.8145V33.8145H41.8154V37.8145V41.8145H57V37.8145ZM41.8154 37.8145H37.8154V53H41.8154H45.8154V37.8145H41.8154ZM41.8154 53H37.8154C37.8154 53.5523 37.3677 54 36.8154 54V58V62C41.786 62 45.8154 57.9706 45.8154 53H41.8154ZM36.8154 58V54H33.1875V58V62H36.8154V58ZM33.1875 58V54C32.6352 54 32.1875 53.5523 32.1875 53H28.1875H24.1875C24.1875 57.9706 28.2169 62 33.1875 62V58ZM28.1875 53H32.1875V37.8145H28.1875H24.1875V53H28.1875ZM28.1875 37.8145V33.8145H13V37.8145V41.8145H28.1875V37.8145ZM13 37.8145V33.8145C12.4477 33.8145 12 33.3667 12 32.8145H8H4C4 37.785 8.02944 41.8145 13 41.8145V37.8145ZM8 32.8145H12V29.1865H8H4V32.8145H8ZM8 29.1865H12C12 28.6342 12.4477 28.1865 13 28.1865V24.1865V20.1865C8.02944 20.1865 4 24.216 4 29.1865H8ZM13 24.1865V28.1865H28.1875V24.1865V20.1865H13V24.1865ZM28.1875 24.1865H32.1875V9H28.1875H24.1875V24.1865H28.1875ZM28.1875 9H32.1875C32.1875 8.44772 32.6352 8 33.1875 8V4V0C28.2169 2.38419e-07 24.1875 4.02944 24.1875 9H28.1875ZM33.1875 4V8H36.8154V4V0H33.1875V4Z" fill="#003E57" mask="url(#path-1-outside-1_1960_1089)"/>
</g>
<path d="M35.5 8L38.5311 13.25H32.4689L35.5 8Z" fill="#003E57"/>
<path d="M35.5 55L38.5311 49.75H32.4689L35.5 55Z" fill="#003E57"/>
<path d="M59 31.5L53.75 34.5311L53.75 28.4689L59 31.5Z" fill="#003E57"/>
<path d="M12 31.5L17.25 34.5311L17.25 28.4689L12 31.5Z" fill="#003E57"/>
<circle cx="35" cy="31" r="5" fill="#003E58"/>
<defs>
<filter id="filter0_d_1960_1089" x="0" y="0" width="66" height="66" filterUnits="userSpaceOnUse" color-interpolation-filters="sRGB">
<feFlood flood-opacity="0" result="BackgroundImageFix"/>
<feColorMatrix in="SourceAlpha" type="matrix" values="0 0 0 0 0 0 0 0 0 0 0 0 0 0 0 0 0 0 127 0" result="hardAlpha"/>
<feOffset dx="-4" dy="4"/>
<feComposite in2="hardAlpha" operator="out"/>
<feColorMatrix type="matrix" values="0 0 0 0 0 0 0 0 0 0.243137 0 0 0 0 0.345098 0 0 0 1 0"/>
<feBlend mode="normal" in2="BackgroundImageFix" result="effect1_dropShadow_1960_1089"/>
<feBlend mode="normal" in="SourceGraphic" in2="effect1_dropShadow_1960_1089" result="shape"/>
</filter>
</defs>
</svg>
