<svg width="61" height="61" viewBox="0 0 61 61" fill="none" xmlns="http://www.w3.org/2000/svg">
<g clip-path="url(#clip0_1976_1013)">
<path d="M34.5594 4.53932L24.6033 14.495C22.7827 16.3161 21.5117 18.4815 20.7889 20.7834C18.4252 21.528 16.2597 22.8385 14.495 24.6033L4.53932 34.5594C-1.51264 40.6114 -1.51357 50.4074 4.53932 56.4603C10.5913 62.5127 20.3878 62.5132 26.4407 56.4603L36.3963 46.5046C38.2174 44.684 39.4879 42.5186 40.2107 40.2163C42.5749 39.4721 44.7399 38.1611 46.5046 36.3963L56.4603 26.4407C62.5127 20.3882 62.5137 10.5922 56.4603 4.53932C50.4083 -1.51264 40.6123 -1.51357 34.5594 4.53932ZM21.2348 31.3417C21.9892 33.1819 23.1117 34.9047 24.6033 36.3963C26.0525 37.8451 27.7768 38.9904 29.657 39.7662L19.7018 49.7219C17.3795 52.0437 13.6005 52.0442 11.2782 49.7219C8.95589 47.3991 8.95589 43.6206 11.2782 41.2983L21.2339 31.3422C21.2343 31.3422 21.2343 31.3422 21.2348 31.3417ZM34.7116 44.8199L24.7555 54.7756C19.6348 59.8968 11.3457 59.8972 6.22403 54.7756C1.10286 49.6549 1.1024 41.3653 6.22403 36.2441L16.1797 26.288C17.3395 25.1283 18.7035 24.2007 20.1904 23.5487C19.9685 25.3642 20.0699 27.1583 20.4566 28.8728C20.1365 29.112 19.833 29.3736 19.5491 29.6574L9.59347 39.6131C6.34224 42.8648 6.34224 48.1549 9.59347 51.4061C12.8447 54.6574 18.1348 54.6574 21.3865 51.4061L31.3422 41.4505C34.5967 38.1955 34.5971 32.9124 31.3422 29.6574C29.6035 27.9187 29.18 25.3907 30.0098 23.269C31.7652 23.922 33.3764 24.9528 34.7116 26.288C39.8207 31.3971 39.8211 39.7104 34.7116 44.8199ZM54.7756 24.7555L44.8199 34.7116C43.6602 35.8714 42.2961 36.7989 40.8092 37.4509C41.0312 35.6354 40.9297 33.8413 40.5434 32.1268C40.8632 31.8876 41.1671 31.6261 41.4505 31.3422L51.4066 21.3865C54.6578 18.1353 54.6578 12.8447 51.4066 9.59347C48.4872 6.67453 43.9212 6.37343 40.6621 8.70411C40.1269 9.08666 40.0036 9.83082 40.3861 10.366C40.7687 10.9012 41.5128 11.025 42.048 10.642C44.4257 8.94192 47.6528 9.20906 49.7219 11.2782C52.0442 13.6005 52.0442 17.379 49.7219 19.7018L39.7658 29.6574C39.7658 29.6574 39.7658 29.6574 39.7653 29.6579C39.0104 27.8178 37.8879 26.0949 36.3963 24.6033C34.9476 23.1545 33.2228 22.0092 31.3426 21.2334L35.4018 17.1742C35.8667 16.7093 35.8667 15.9549 35.4018 15.4895C34.9364 15.0246 34.1825 15.0246 33.7171 15.4895L29.6574 19.5491C26.403 22.8036 26.4025 28.0868 29.6574 31.3422C31.3962 33.0804 31.8197 35.6089 30.9899 37.7306C29.2344 37.0777 27.6232 36.0468 26.288 34.7111C21.1794 29.6025 21.1789 21.2888 26.288 16.1797L36.2441 6.22403C41.3648 1.10286 49.6544 1.10193 54.7756 6.22403C59.8968 11.3447 59.8972 19.6343 54.7756 24.7555Z" fill="#003E57"/>
<path d="M39.1206 12.9629C39.1206 13.621 38.5873 14.1543 37.9297 14.1543C37.2716 14.1543 36.7383 13.621 36.7383 12.9629C36.7383 12.3048 37.2716 11.7715 37.9297 11.7715C38.5873 11.7715 39.1206 12.3048 39.1206 12.9629Z" fill="#003E57"/>
<path d="M16.1813 16.1803C16.6467 15.7154 16.6467 14.961 16.1813 14.4956L11.1272 9.44147C10.6618 8.97654 9.90784 8.97654 9.44244 9.44147C8.97752 9.90686 8.97752 10.6613 9.44244 11.1267L14.4966 16.1808C14.9625 16.6457 15.7164 16.6457 16.1813 16.1803Z" fill="#003E57"/>
<path d="M4.53078 20.0176C3.87318 20.0176 3.33984 20.5509 3.33984 21.2085C3.33984 21.8666 3.87318 22.3999 4.53078 22.3999H11.6787C12.3363 22.3999 12.8697 21.8666 12.8697 21.2085C12.8697 20.5509 12.3363 20.0176 11.6787 20.0176H4.53078Z" fill="#003E57"/>
<path d="M20.0156 4.17285V11.3203C20.0156 11.9779 20.549 12.5117 21.2066 12.5117C21.8646 12.5117 22.398 11.9779 22.398 11.3203V4.17285C22.398 3.51478 21.8646 2.98145 21.2066 2.98145C20.549 2.98145 20.0156 3.51478 20.0156 4.17285Z" fill="#003E57"/>
<path d="M44.8256 44.8194C44.3602 45.2843 44.3602 46.0387 44.8256 46.5041L49.8798 51.5583C50.1125 51.791 50.4173 51.9073 50.7221 51.9073C51.7734 51.9073 52.3175 50.627 51.5645 49.8736L46.5103 44.8194C46.0449 44.3545 45.291 44.3545 44.8256 44.8194Z" fill="#003E57"/>
<path d="M40.8672 56.8272V49.6792C40.8672 49.0216 40.3334 48.4883 39.6758 48.4883C39.0177 48.4883 38.4844 49.0216 38.4844 49.6792V56.8272C38.4844 57.4848 39.0177 58.0181 39.6758 58.0181C40.3334 58.0181 40.8672 57.4848 40.8672 56.8272Z" fill="#003E57"/>
<path d="M56.8311 40.8633C57.4887 40.8633 58.022 40.3295 58.022 39.6719C58.022 39.0138 57.4887 38.4805 56.8311 38.4805H49.6831C49.0255 38.4805 48.4922 39.0138 48.4922 39.6719C48.4922 40.3295 49.0255 40.8633 49.6831 40.8633H56.8311Z" fill="#003E57"/>
</g>
<defs>
<clipPath id="clip0_1976_1013">
<rect width="61" height="61" fill="white"/>
</clipPath>
</defs>
</svg>
