<svg width="24" height="24" viewBox="0 0 24 24" fill="none" xmlns="http://www.w3.org/2000/svg">
<path d="M13.4063 18.375H10.5938C10.2054 18.375 9.89062 18.6898 9.89062 19.0781C9.89062 19.4664 10.2054 19.7813 10.5938 19.7813H13.4063C13.7946 19.7813 14.1094 19.4664 14.1094 19.0781C14.1094 18.6898 13.7946 18.375 13.4063 18.375Z" fill="black"/>
<path d="M22.6839 19.3762L20.98 14.1708C20.1647 11.725 17.9652 10.0385 15.4234 9.86031C16.3466 8.96514 16.9215 7.71259 16.9215 6.32814V4.92188C16.9215 4.87538 16.9169 4.82991 16.9083 4.78594C16.732 2.27531 14.7869 0.139076 12.2632 0.0069353C9.43602 -0.141049 7.07769 2.09803 7.07769 4.92184V6.32809C7.07769 7.71254 7.65247 8.96509 8.57572 9.86027C6.03397 10.0385 3.8344 11.7251 3.01803 14.1743L1.31641 19.3727C0.556614 21.6523 2.24965 24 4.65167 24C5.15792 24 18.8217 24 19.3474 24C20.4911 24 21.5306 23.4678 22.1995 22.54C22.8682 21.6122 23.0444 20.4577 22.6839 19.3762ZM8.4839 5.62496V5.53309V4.92184H8.48394C8.48394 2.90986 10.1635 1.30486 12.1897 1.41117C14.0234 1.50717 15.5152 3.18914 15.5152 5.16052V5.56679C14.7077 5.36021 14.109 4.62657 14.109 3.75558C14.109 3.03033 13.1368 2.78194 12.7889 3.41832C12.0448 4.77948 10.619 5.62496 9.06782 5.62496H8.4839ZM8.55468 7.03121H9.06782C10.61 7.03121 12.0593 6.40346 13.107 5.33101C13.584 6.19674 14.4413 6.82454 15.4521 6.98851C15.1421 8.61231 13.7123 9.84372 11.9996 9.84372C10.3018 9.84372 8.8813 8.63397 8.55468 7.03121ZM16.9215 22.5937H7.07769V16.0312C7.07769 15.6435 7.39311 15.3281 7.78082 15.3281H16.2183C16.606 15.3281 16.9215 15.6435 16.9215 16.0312V22.5937ZM19.3474 22.5937H18.3277V16.0312C18.3277 14.8681 17.3814 13.9219 16.2183 13.9219H7.78077C6.61766 13.9219 5.67139 14.8681 5.67139 16.0312V22.5937H4.65167C3.21251 22.5937 2.19349 21.1886 2.6517 19.8137L4.35326 14.6154C5.02423 12.6025 6.90069 11.25 9.02254 11.25H14.9765C17.0984 11.25 18.9748 12.6025 19.6446 14.6118L21.3486 19.8173C21.8045 21.1851 20.7887 22.5937 19.3474 22.5937Z" fill="black"/>
</svg>
