<svg width="24" height="24" viewBox="0 0 24 24" fill="none" xmlns="http://www.w3.org/2000/svg">
<path d="M6.5625 15.2812C6.5625 13.9889 5.51109 12.9375 4.21875 12.9375C2.92641 12.9375 1.875 13.9889 1.875 15.2812C1.875 16.5736 2.92641 17.625 4.21875 17.625C5.51109 17.625 6.5625 16.5736 6.5625 15.2812ZM4.21875 16.6875C3.44334 16.6875 2.8125 16.0567 2.8125 15.2812C2.8125 14.5058 3.44334 13.875 4.21875 13.875C4.99416 13.875 5.625 14.5058 5.625 15.2812C5.625 16.0567 4.99416 16.6875 4.21875 16.6875Z" fill="black"/>
<path d="M0.46875 21.375H9.89062C10.1495 21.375 10.3594 21.1651 10.3594 20.9062C10.3594 20.6474 10.1495 20.4375 9.89062 20.4375H8.48456C8.70234 19.369 9.64941 18.5625 10.7812 18.5625H13.2188C14.3506 18.5625 15.2976 19.369 15.5154 20.4375H14.1094C13.8505 20.4375 13.6406 20.6474 13.6406 20.9062C13.6406 21.1651 13.8505 21.375 14.1094 21.375H23.5312C23.7901 21.375 24 21.1651 24 20.9062C24 19.097 22.528 17.625 20.7188 17.625H18.8438C17.6514 17.625 16.6058 18.2644 16.0312 19.2182C15.4567 18.2644 14.4111 17.625 13.2188 17.625H10.7812C9.58894 17.625 8.54334 18.2644 7.96875 19.2182C7.39416 18.2644 6.34856 17.625 5.15625 17.625H3.28125C1.47197 17.625 0 19.097 0 20.9062C0 21.1651 0.209859 21.375 0.46875 21.375ZM18.8438 18.5625H20.7188C21.8506 18.5625 22.7976 19.369 23.0154 20.4375H16.5471C16.7649 19.369 17.7119 18.5625 18.8438 18.5625ZM3.28125 18.5625H5.15625C6.28809 18.5625 7.23511 19.369 7.45294 20.4375H0.984563C1.20239 19.369 2.14941 18.5625 3.28125 18.5625Z" fill="black"/>
<path d="M14.3438 15.2812C14.3438 13.9889 13.2923 12.9375 12 12.9375C10.7077 12.9375 9.65625 13.9889 9.65625 15.2812C9.65625 16.5736 10.7077 17.625 12 17.625C13.2923 17.625 14.3438 16.5736 14.3438 15.2812ZM12 16.6875C11.2246 16.6875 10.5938 16.0567 10.5938 15.2812C10.5938 14.5058 11.2246 13.875 12 13.875C12.7754 13.875 13.4062 14.5058 13.4062 15.2812C13.4062 16.0567 12.7754 16.6875 12 16.6875Z" fill="black"/>
<path d="M22.125 15.2812C22.125 13.9889 21.0736 12.9375 19.7812 12.9375C18.4889 12.9375 17.4375 13.9889 17.4375 15.2812C17.4375 16.5736 18.4889 17.625 19.7812 17.625C21.0736 17.625 22.125 16.5736 22.125 15.2812ZM19.7812 16.6875C19.0058 16.6875 18.375 16.0567 18.375 15.2812C18.375 14.5058 19.0058 13.875 19.7812 13.875C20.5567 13.875 21.1875 14.5058 21.1875 15.2812C21.1875 16.0567 20.5567 16.6875 19.7812 16.6875Z" fill="black"/>
<path d="M7.75737 7.72894C7.70225 7.55925 7.55557 7.43555 7.379 7.40986L5.35596 7.11586L4.45114 5.28277C4.37215 5.12278 4.20921 5.02148 4.03081 5.02148C3.8524 5.02148 3.68946 5.12278 3.61048 5.28277L2.70561 7.11586L0.682574 7.40986C0.505996 7.43555 0.359324 7.55925 0.304199 7.72894C0.249074 7.89858 0.295058 8.08491 0.422793 8.20941L1.88651 9.63633L1.54095 11.651C1.51076 11.8268 1.58304 12.0045 1.72742 12.1094C1.87175 12.2142 2.06309 12.228 2.22106 12.1451L4.03067 11.1939C4.3609 11.3676 5.8399 12.1451 5.8399 12.1451C5.99937 12.2289 6.19067 12.2133 6.33359 12.1095C6.47796 12.0046 6.55029 11.8268 6.5201 11.651L6.17459 9.63638L7.63868 8.20945C7.76651 8.08495 7.8125 7.89863 7.75737 7.72894ZM5.34373 9.13702C5.23325 9.24469 5.18281 9.39984 5.20892 9.55195L5.43556 10.8733C5.43556 10.8733 4.67323 10.4726 4.24901 10.2494C4.11237 10.1776 3.9492 10.1775 3.81265 10.2493L2.6255 10.8734L2.85214 9.55195C2.87825 9.39989 2.82781 9.24473 2.71737 9.13706L1.75723 8.20102L3.08431 8.00817C3.23698 7.98595 3.36893 7.89005 3.43718 7.75172L4.03081 6.54923L4.62439 7.75172C4.69268 7.89005 4.82464 7.98595 4.97731 8.00817L6.3042 8.20102L5.34373 9.13702Z" fill="black"/>
<path d="M23.6948 7.72894C23.6397 7.55925 23.493 7.43555 23.3164 7.40986L21.2934 7.11586L20.3886 5.28277C20.3096 5.12278 20.1467 5.02148 19.9683 5.02148C19.7899 5.02148 19.6269 5.12278 19.5479 5.28277L18.6431 7.11586L16.6201 7.40986C16.4435 7.43555 16.2968 7.55925 16.2417 7.72894C16.1866 7.89863 16.2326 8.08495 16.3603 8.20945L17.8244 9.63638L17.4789 11.651C17.4487 11.8268 17.5211 12.0045 17.6654 12.1094C17.8098 12.2144 18.0012 12.228 18.1591 12.1451L19.9683 11.1938L21.7779 12.1451C21.9377 12.2291 22.1289 12.2131 22.2716 12.1095C22.4159 12.0046 22.4883 11.8268 22.4581 11.651L22.1125 9.63633L23.5762 8.20941C23.704 8.08491 23.7499 7.89858 23.6948 7.72894ZM21.2816 9.13706C21.1712 9.24473 21.1207 9.39984 21.1468 9.55195L21.3735 10.8734L20.1864 10.2494C20.1181 10.2134 20.0432 10.1955 19.9682 10.1955C19.8933 10.1955 19.8184 10.2135 19.7501 10.2493L18.5635 10.8733L18.7901 9.55195C18.8162 9.39989 18.7657 9.24469 18.6552 9.13702L17.6949 8.20102L19.0218 8.00817C19.1744 7.98595 19.3064 7.89005 19.3747 7.75172L19.9683 6.54923L20.5619 7.75172C20.6302 7.89005 20.7621 7.98595 20.9148 8.00817L22.2418 8.20102L21.2816 9.13706Z" fill="black"/>
<path d="M16.6707 6.01917C16.6156 5.84948 16.4689 5.72583 16.2924 5.70014L13.6164 5.31141L12.4195 2.88633C12.3406 2.7263 12.1776 2.625 11.9992 2.625C11.8207 2.625 11.6578 2.7263 11.5789 2.88628L10.382 5.31141L7.70604 5.70019C7.52946 5.72587 7.38279 5.84953 7.32767 6.01922C7.27249 6.18891 7.31848 6.37519 7.44621 6.49973L9.38243 8.38744L8.92535 11.0527C8.89517 11.2286 8.96745 11.4063 9.11182 11.5111C9.2562 11.616 9.44749 11.6298 9.60546 11.5469L11.9992 10.2885L14.3929 11.5468C14.5511 11.63 14.7425 11.6158 14.8866 11.5111C15.031 11.4062 15.1032 11.2285 15.0731 11.0527L14.616 8.38739L16.5522 6.49969C16.6799 6.37514 16.7259 6.18886 16.6707 6.01917ZM13.7851 7.88812C13.6746 7.9958 13.6242 8.15091 13.6503 8.30302L13.9885 10.2751L12.2172 9.34402C12.1489 9.30811 12.074 9.2902 11.9991 9.2902C11.9242 9.2902 11.8493 9.30816 11.781 9.34402L10.0098 10.2751L10.348 8.30302C10.3741 8.15095 10.3236 7.9958 10.2132 7.88812L8.78056 6.49139L10.7606 6.20372C10.9132 6.1815 11.0452 6.08559 11.1135 5.94727L11.9992 4.15294L12.8848 5.94731C12.9531 6.08564 13.085 6.18155 13.2377 6.20377L15.2177 6.49144L13.7851 7.88812Z" fill="black"/>
<path d="M12 21.375C12.2589 21.375 12.4688 21.1651 12.4688 20.9062C12.4688 20.6474 12.2589 20.4375 12 20.4375C11.7411 20.4375 11.5312 20.6474 11.5312 20.9062C11.5312 21.1651 11.7411 21.375 12 21.375Z" fill="black"/>
</svg>
