<svg width="24" height="24" viewBox="0 0 24 24" fill="none" xmlns="http://www.w3.org/2000/svg">
<g clip-path="url(#clip0_2043_990)">
<path d="M21.17 6.83759C21.6162 6.33931 21.8882 5.68189 21.8882 4.96193C21.8882 3.40976 20.6255 2.147 19.0732 2.147C17.5211 2.147 16.2583 3.40976 16.2583 4.96193C16.2583 5.68189 16.5303 6.33931 16.9766 6.83759C16.6702 6.98201 16.381 7.1569 16.113 7.35875C15.5982 6.82179 14.9767 6.38792 14.283 6.09153C14.8399 5.51909 15.1838 4.73848 15.1838 3.87865C15.1838 2.1274 13.7591 0.702637 12.0078 0.702637C10.2566 0.702637 8.83177 2.1274 8.83177 3.87865C8.83177 4.73848 9.17578 5.51909 9.73266 6.09153C9.03591 6.38918 8.412 6.82545 7.89591 7.36559C7.62544 7.16093 7.33322 6.98361 7.02342 6.83759C7.46967 6.33931 7.74169 5.68189 7.74169 4.96193C7.74169 3.40976 6.47892 2.147 4.92675 2.147C3.37458 2.147 2.11177 3.40976 2.11177 4.96193C2.11177 5.68189 2.38378 6.33931 2.83003 6.83759C1.15927 7.62509 0 9.32534 0 11.2915V11.2974C0 13.4064 0.555234 15.4813 1.6057 17.2978C1.60978 17.3048 1.61395 17.3118 1.61827 17.3186C2.65355 19.1007 4.13873 20.5952 5.91473 21.6421C7.75186 22.7249 9.85612 23.2973 12 23.2973C14.1439 23.2973 16.2481 22.7249 18.0853 21.642C19.8612 20.5952 21.3465 19.1005 22.3817 17.3186C22.386 17.3118 22.3902 17.3048 22.3943 17.2978C23.4448 15.4812 24 13.4063 24 11.2973V11.2915C24 9.32534 22.8407 7.62509 21.17 6.83759ZM17.892 16.2426H15.2477C15.4058 14.9157 15.4992 13.4738 15.5218 12.0004H18.657C18.5943 13.4835 18.3332 14.9298 17.892 16.2426ZM5.34295 12.0004H8.47819C8.50073 13.4737 8.59411 14.9157 8.75227 16.2426H6.108C5.66677 14.9298 5.40572 13.4835 5.34295 12.0004ZM4.92675 3.5532C5.70347 3.5532 6.33544 4.18512 6.33544 4.96189C6.33544 5.73865 5.70352 6.37057 4.92675 6.37057C4.14998 6.37057 3.51802 5.73865 3.51802 4.96189C3.51802 4.18512 4.14998 3.5532 4.92675 3.5532ZM4.92089 7.77682H4.93256C5.73187 7.77682 6.46959 8.04514 7.06069 8.49631C6.70645 9.12987 6.47288 9.83951 6.39136 10.5942H1.47572C1.80009 8.98915 3.22162 7.77682 4.92089 7.77682ZM10.238 3.87865C10.238 2.90281 11.032 2.10889 12.0078 2.10889C12.9837 2.10889 13.7776 2.90281 13.7776 3.87865C13.7776 4.8545 12.9837 5.64842 12.0078 5.64842C11.032 5.64842 10.238 4.8545 10.238 3.87865ZM11.9042 7.05467H12.1114C14.1902 7.05467 15.9159 8.59489 16.2072 10.5942H7.80844C8.09972 8.59489 9.82542 7.05467 11.9042 7.05467ZM19.0732 3.5532C19.85 3.5532 20.482 4.18512 20.482 4.96189C20.482 5.73865 19.8501 6.37057 19.0732 6.37057C18.2965 6.37057 17.6646 5.73865 17.6646 4.96189C17.6646 4.18512 18.2965 3.5532 19.0732 3.5532ZM19.0791 7.77682C20.7784 7.77682 22.1999 8.98911 22.5243 10.5942H17.6242C17.5423 9.83618 17.307 9.12359 16.9502 8.48796C17.5395 8.04185 18.273 7.77682 19.0674 7.77682H19.0791ZM10.1686 16.2426C10.0046 14.9249 9.90773 13.4805 9.88444 12.0004H14.1156C14.0923 13.4805 13.9954 14.9249 13.8314 16.2426H10.1686ZM8.95092 17.6489C9.16561 18.9497 9.4807 20.3049 9.94125 21.3618C8.65561 20.6872 7.50712 19.3956 6.67439 17.6489H8.95092ZM10.3772 17.6489H13.6228C13.0182 21.1285 12.1565 21.8911 12 21.8911C11.8435 21.8911 10.9818 21.1285 10.3772 17.6489ZM14.0587 21.3618C14.5192 20.3049 14.8343 18.9497 15.049 17.6489H17.3256C16.4928 19.3957 15.3443 20.6873 14.0587 21.3618ZM1.42955 12.0004H3.93623C3.99366 13.4693 4.23042 14.9098 4.63242 16.2426H2.62983C1.93772 14.9322 1.52803 13.4843 1.42955 12.0004ZM3.52172 17.6489H5.13572C5.59237 18.7415 6.16509 19.7173 6.828 20.5367C5.54878 19.8204 4.41741 18.8409 3.52172 17.6489ZM17.172 20.5367C17.8349 19.7173 18.4076 18.7415 18.8642 17.6489H20.4783C19.5826 18.8409 18.4512 19.8204 17.172 20.5367ZM21.3701 16.2426H19.3675C19.7696 14.9098 20.0063 13.4693 20.0638 12.0004H22.5705C22.472 13.4843 22.0623 14.9322 21.3701 16.2426Z" fill="black"/>
</g>
<defs>
<clipPath id="clip0_2043_990">
<rect width="24" height="24" fill="white"/>
</clipPath>
</defs>
</svg>
